# xmcd
#
# Track frame offsets:
#	150
#	18090
#	34430
#	54340
#	66535
#	79945
#	104460
#	124592
#	143715
#	159552
#	172560
#
# Disc length: 2520 seconds
#
# Revision: 0
# Processed by: cddbd v1.5.2PL0 Copyright (c) Steve Scherf et al.
# Submitted via: dBpowerAMP V4.0
#
DISCID=8a09d60b
DTITLE=Paul Wine Jones - Stop Arguing Over Me
DYEAR=2006
DGENRE=Blues
TTITLE0=Heels Clickin'
TTITLE1=Stop Arguing Over Me
TTITLE2=Watch Me
TTITLE3=Ain't It A Shame
TTITLE4=Damn Damn Fool
TTITLE5=I'm So Lonesome
TTITLE6=I Don't Want No Woman
TTITLE7=Went Down Slow
TTITLE8=Goin' Away Baby
TTITLE9=Darlin' I Miss You So
TTITLE10=Down South
EXTD=
EXTT0=
EXTT1=
EXTT2=
EXTT3=
EXTT4=
EXTT5=
EXTT6=
EXTT7=
EXTT8=
EXTT9=
EXTT10=
PLAYORDER=
